# xmcd CD database file
#
# Track frame offsets:
#	150
#	31497
#	55908
#	81925
#	105297
#	131633
#	160701
#	199547
#	225579
#	248729
#	270315
#	296077
#
# Disc length: 4337 seconds
#
# Revision: 6
# Processed by: cddbd v1.5.2PL0 Copyright (c) Steve Scherf et al.
# Submitted via: CDex 1.70beta2
#
DISCID=9810ef0c
DTITLE=MISIA - Love and Ballads
DYEAR=2004
DGENRE=R&B
TTITLE0=Everthing
TTITLE1=眠れぬ夜は君のせい
TTITLE2=忘れない日々
TTITLE3=キスして抱きしめて
TTITLE4=あの夏のままで
TTITLE5=It’s just love
TTITLE6=THE GLORY DAY 
TTITLE7=あの日のように
TTITLE8=飛び方を忘れた小さな鳥~STAR OCEAN VERSION~
TTITLE9=時をとめて
TTITLE10=星の降る丘
TTITLE11=果てなく続くストーリー
EXTD=YEAR: 2004
EXTT0=
EXTT1=
EXTT2=
EXTT3=
EXTT4=
EXTT5=
EXTT6=
EXTT7=
EXTT8=
EXTT9=
EXTT10=
EXTT11=
PLAYORDER=
